# xmcd
#
# Track frame offsets:
#	150
#	14600
#	30950
#	43109
#	54422
#	68958
#	82991
#	98521
#	109264
#	123284
#	138134
#	151002
#	164511
#	178801
#
# Disc length: 2585 seconds
#
# Revision: 1
# Processed by: cddbd v1.5.2PL0 Copyright (c) Steve Scherf et al.
# Submitted via: audiograbber 1.83.01
#
DISCID=aa0a170e
DTITLE=Ricky King - Sternenstaub
DYEAR=2007
DGENRE=Instrumental
TTITLE0=Sternenstaub
TTITLE1=Rosenmond
TTITLE2=Peace Pipe
TTITLE3=Amorada
TTITLE4=Sommernachtstraum
TTITLE5=The Rise And Fall Of Flingle Bunt
TTITLE6=Im Herzen jung
TTITLE7=Bonanza
TTITLE8=Silbermeer
TTITLE9=Kinder unter einer Sonne
TTITLE10=Kings Boogie
TTITLE11=Sommerabend
TTITLE12=Hurricane
TTITLE13=Morgensonne
EXTD=
EXTT0=
EXTT1=
EXTT2=
EXTT3=
EXTT4=
EXTT5=
EXTT6=
EXTT7=
EXTT8=
EXTT9=
EXTT10=
EXTT11=
EXTT12=
EXTT13=
PLAYORDER=
